<?xml version="1.0" encoding="iso-8859-1"?>
<!-- Generator: Adobe Illustrator 16.0.0, SVG Export Plug-In . SVG Version: 6.00 Build 0)  -->
<!DOCTYPE svg PUBLIC "-//W3C//DTD SVG 1.1//EN" "http://www.w3.org/Graphics/SVG/1.1/DTD/svg11.dtd">
<svg version="1.1" id="Capa_1" xmlns="http://www.w3.org/2000/svg" xmlns:xlink="http://www.w3.org/1999/xlink" x="0px" y="0px"
	 width="542.526px" height="542.527px" viewBox="0 0 542.526 542.527" style="enable-background:new 0 0 542.526 542.527;"
	 xml:space="preserve">
<g>
	<path d="M504.801,71.958c6.436-4.562,7.975,4.274,8.232-0.497c0.269-4.858,3.663-6.216,9.161-6.216h1.396
		c0.248,0,0.439,0.115,0.698,0.125c9.132-1.368,6.234,11.016,10.652,10.107c4.408-0.909,6.541,3.682,4.867,6.426
		c-1.674,2.735-6.655,10.136-3.959,11.581c7.603,0.908,6.637,4.724,6.637,4.724c-1.272,3.347-17.137,11.867-17.137,11.867
		c-0.459,7.306-31.488,83.069-37.886,96.763c-6.397,13.694-30.581,30.122-37.887,34.234s-52.03,69.834-57.509,78.958
		c-5.479,9.132-2.286,13.234-2.286,13.234c4.112,0.908,14.603,10.041,14.603,19.622c0,9.582-7.756,39.818-7.756,39.818
		c14.268,1.023,20.312,7.306,12.326,18.025c-7.984,10.729-24.643,1.712-25.561,2.4c-0.908,0.688-20.311,20.196-20.311,20.196
		c35.831-7.87,39.933-1.482,44.619,1.252c4.676,2.735,13.349,13.809,1.711,17.003c-11.637,3.193-19.966-0.229-19.966-0.229
		c-37.543,9.696-87.058,10.155-90.71,3.309c-3.653-6.848-57.892,5.173-57.892,5.173C18.748,501.219,6.575,456.792,2.32,450.71
		c-4.255-6.082-6.082-35.296,26.163-7.307c32.254,27.99,180.454-4.742,184.662-5.374c14.124-2.113,52.747-2.687,47.191-33.573
		c-11.561-85.805,35.295-151.834,56.591-164.007c30.236-17.279,36.815-73.325,26.173-87.937
		c-10.652-14.602,3.347-15.214-4.867-36.213c-8.215-21,0-22.816,0-22.816s11.57-2.133,18.723,11.561
		c7.307,11.255,13.254,5.02,34.855,4.714c21.602-0.306,19.651,8.673,30.151,11.867c10.499,3.194,5.985,9.276,7.516,10.194
		c1.521,0.928,3.309,8.989,3.309,8.989v0.612c0,4.867-9.85,13.082-9.696,29.213c0.459,11.408,12.967,11.255,29.396,10.653
		c16.428-0.612,36.06-46.856,42.601-59.642c6.541-12.775,0.153-11.714-1.367-18.254c-1.521-6.541,9.734-4.255,9.275-10.806
		c-0.459-6.541-7.459-10.5-1.367-17.643c0.478-0.545,0.918-0.994,1.357-1.415L504.801,71.958z"/>
</g>
<g>
</g>
<g>
</g>
<g>
</g>
<g>
</g>
<g>
</g>
<g>
</g>
<g>
</g>
<g>
</g>
<g>
</g>
<g>
</g>
<g>
</g>
<g>
</g>
<g>
</g>
<g>
</g>
<g>
</g>
</svg>
