<?xml version="1.0" encoding="iso-8859-1"?>
<!-- Generator: Adobe Illustrator 18.1.1, SVG Export Plug-In . SVG Version: 6.00 Build 0)  -->
<svg version="1.1" id="Capa_1" xmlns="http://www.w3.org/2000/svg" xmlns:xlink="http://www.w3.org/1999/xlink" x="0px" y="0px"
	 viewBox="0 0 48.236 48.236" style="enable-background:new 0 0 48.236 48.236;" xml:space="preserve">
<g>
	<g>
		<path style="fill:#030104;" d="M22.79,6.992l-8.368-2.259c-1.888-0.511-3.833,0.607-4.343,2.496l-2.073,7.676
			C11.402,10.798,16.681,7.867,22.79,6.992z"/>
		<path style="fill:#030104;" d="M45.218,14.905l-2.072-7.676c-0.51-1.889-2.455-3.006-4.344-2.496l-8.367,2.259
			C36.543,7.867,41.822,10.798,45.218,14.905z"/>
		<path style="fill:#030104;" d="M45.747,17.325c-3.356-5.288-9.798-9.021-17.325-9.542c-0.597-0.041-1.199-0.068-1.811-0.068
			c-0.609,0-1.211,0.026-1.809,0.068c-7.291,0.504-13.562,4.023-17.003,9.05c-0.078-0.05-0.164-0.088-0.257-0.113
			c-0.036-0.01-0.069-0.025-0.106-0.03c0,0-0.052-0.008-0.138-0.02c-0.022-0.003-0.061-0.009-0.088-0.013
			c-0.005,0.053-0.011,0.106-0.015,0.162c-0.021,0.26-0.035,0.548-0.044,0.838c-0.002,0.065-0.002,0.129-0.003,0.194
			c-0.007,0.358-0.008,0.714-0.004,1.021c0.008,0.538-0.164,0.581-0.386,0.089c-0.03-0.067-0.064-0.147-0.096-0.219
			c-0.083-0.188-0.167-0.385-0.254-0.594c-0.047-0.114-0.095-0.225-0.142-0.342c-0.034-0.085-0.063-0.169-0.096-0.254
			c-0.127-0.33-0.238-0.649-0.329-0.956c-0.219,0.017-0.47,0.034-0.731,0.071c-0.054,0.014-0.12,0.032-0.176,0.047
			c-0.011,0.007-0.019,0.018-0.03,0.025c-0.052,0.342-0.083,0.82-0.096,1.303c-0.013,0.424-0.012,0.852-0.007,1.216
			c0.008,0.538-0.164,0.581-0.386,0.089c-0.152-0.338-0.327-0.742-0.492-1.155c-0.139-0.349-0.262-0.693-0.369-1.026
			c-0.333,0.147-0.663,0.321-0.971,0.549c-0.007,0.004-0.013,0.01-0.02,0.015c-0.035,0.316-0.056,0.703-0.067,1.092
			c-0.013,0.424-0.012,0.852-0.007,1.216c0.008,0.538-0.164,0.581-0.386,0.089c-0.152-0.338-0.327-0.742-0.492-1.155
			c-0.043-0.107-0.079-0.212-0.12-0.319c-0.159,0.175-0.319,0.354-0.464,0.55c-0.483,0.593-0.798,1.32-0.974,2.103
			c-0.11,0.797-0.049,1.649,0.188,2.482c0.19,0.833,0.499,1.636,0.686,2.417c0.259,0.775,0.482,1.535,0.852,2.23
			c0.304,0.711,0.76,1.342,1.148,1.938c0.09,0.106,0.17,0.206,0.256,0.31c0.366,0.449,0.708,0.883,1.114,1.23
			c0.235,0.215,0.464,0.424,0.686,0.627c0.238,0.179,0.467,0.352,0.688,0.518c0.052,0.041,0.109,0.071,0.162,0.11
			c0.285,0.206,0.574,0.382,0.853,0.537c0.088,0.049,0.183,0.104,0.265,0.149c0.193,0.104,0.373,0.2,0.54,0.289
			c0.027,0.01,0.048,0.016,0.074,0.025c0.134,0.046,0.264,0.091,0.378,0.13c0.543,0.188,0.865,0.285,0.865,0.285
			c0.081,0.024,0.167,0.022,0.254,0.008c0.16,0.083,0.323,0.169,0.481,0.246c0.565,0.243,1.098,0.481,1.588,0.71
			c0.486,0.24,0.946,0.428,1.362,0.576c0.413,0.154,0.773,0.296,1.067,0.424c0.591,0.243,0.928,0.4,0.928,0.4
			c0.026,0.01,0.039,0.039,0.03,0.064c-0.008,0.021-0.032,0.033-0.054,0.032c0,0-0.364-0.046-0.998-0.158
			c-0.319-0.05-0.704-0.124-1.144-0.217c-0.442-0.088-0.945-0.179-1.466-0.371c-0.528-0.169-1.1-0.362-1.702-0.576
			c-0.232-0.086-0.464-0.2-0.696-0.312c3.857,4.939,10.551,8.218,18.152,8.218c4.18,0,8.084-0.993,11.395-2.704
			c-0.615-0.396-1.148-0.911-1.562-1.513c0.037-0.005,0.074-0.009,0.113-0.015c0.449-0.065,0.894-0.146,1.266-0.219
			c0.542-0.105,0.542-0.304,0.007-0.441c-0.362-0.092-0.786-0.207-1.203-0.336c-0.293-0.09-0.581-0.187-0.838-0.281
			c-0.144-0.407-0.247-0.833-0.291-1.277c0.342-0.027,0.696-0.064,1.06-0.119c0.449-0.066,0.894-0.146,1.266-0.219
			c0.542-0.105,0.542-0.305,0.007-0.441c-0.362-0.093-0.786-0.207-1.203-0.336c-0.386-0.119-0.769-0.248-1.073-0.373
			c0.071-0.425,0.187-0.836,0.35-1.223c0.216-0.023,0.433-0.05,0.654-0.082c0.449-0.066,0.894-0.146,1.266-0.219
			c0.542-0.106,0.542-0.305,0.007-0.441c-0.362-0.093-0.786-0.208-1.203-0.337c-0.03-0.009-0.06-0.019-0.089-0.028
			c1.006-1.373,2.625-2.27,4.458-2.27h2.735c1.199,0,2.306,0.386,3.211,1.035c0.836-1.91,1.293-3.971,1.293-6.117
			C48.234,22.661,47.333,19.821,45.747,17.325z M32.939,18.99c0.625-1.202,1.68-2.088,2.97-2.495
			c1.289-0.406,2.661-0.287,3.864,0.339c0.244,0.127,0.34,0.429,0.211,0.674c-0.127,0.245-0.43,0.339-0.674,0.213
			c-1.988-1.034-4.449-0.257-5.484,1.73c-0.09,0.172-0.264,0.27-0.444,0.27c-0.077,0-0.157-0.019-0.229-0.057
			C32.907,19.537,32.812,19.235,32.939,18.99z M39.732,21.239c0.007,0.016,0.002,0.035-0.012,0.045c0,0-0.397,0.3-0.955,0.703
			c-0.365,0.264-0.798,0.57-1.238,0.87c-0.274,0.197-0.543,0.404-0.809,0.572c-0.277,0.15-0.544,0.274-0.789,0.353
			c-0.248,0.074-0.453,0.138-0.611,0.159c-0.153,0.029-0.248,0.034-0.248,0.034c-0.022,0.001-0.043-0.017-0.043-0.04
			c0-0.01,0.002-0.019,0.007-0.026c0,0,0.051-0.079,0.151-0.197c0.098-0.126,0.256-0.272,0.442-0.45
			c0.19-0.174,0.431-0.344,0.699-0.509c0.174-0.092,0.37-0.175,0.562-0.26c0.114-0.051,0.221-0.104,0.338-0.156
			c1.211-0.589,2.455-1.118,2.455-1.118C39.701,21.211,39.723,21.22,39.732,21.239z M13.664,16.834
			c1.201-0.625,2.575-0.745,3.864-0.339c1.29,0.407,2.345,1.293,2.97,2.495c0.127,0.245,0.032,0.547-0.212,0.674
			c-0.074,0.038-0.153,0.057-0.23,0.057c-0.181,0-0.355-0.098-0.444-0.27c-1.036-1.989-3.497-2.764-5.485-1.73
			c-0.246,0.127-0.547,0.032-0.674-0.213C13.324,17.263,13.419,16.961,13.664,16.834z M18.402,23.908
			c0.013,0.02,0.007,0.046-0.013,0.058c-0.008,0.005-0.016,0.007-0.025,0.007c0,0-0.094-0.005-0.247-0.034
			c-0.158-0.021-0.363-0.085-0.611-0.159c-0.245-0.078-0.513-0.202-0.79-0.353c-0.266-0.168-0.534-0.375-0.808-0.572
			c-0.39-0.265-0.774-0.536-1.11-0.778c-0.624-0.449-1.082-0.794-1.082-0.794c-0.017-0.013-0.02-0.036-0.007-0.053
			c0.011-0.014,0.029-0.019,0.045-0.012c0,0,1.245,0.53,2.456,1.118c0.217,0.098,0.426,0.195,0.635,0.294
			c0.086,0.041,0.182,0.079,0.264,0.122c0.268,0.165,0.509,0.335,0.699,0.509c0.188,0.178,0.346,0.324,0.442,0.45
			C18.352,23.829,18.402,23.908,18.402,23.908z M13.268,26.75c-0.021,0.003-0.04-0.012-0.043-0.032
			c-0.002-0.019,0.008-0.034,0.023-0.04c0,0,1.255-0.506,2.527-0.945c0.316-0.119,0.629-0.25,0.93-0.343
			c0.306-0.073,0.597-0.123,0.854-0.134c0.259-0.007,0.474-0.015,0.631,0.006c0.155,0.012,0.247,0.032,0.247,0.032
			c0.023,0.005,0.037,0.026,0.032,0.05c-0.002,0.01-0.007,0.018-0.013,0.021c0,0-0.07,0.063-0.199,0.151
			c-0.126,0.097-0.317,0.196-0.545,0.319c-0.229,0.117-0.506,0.22-0.808,0.309c-0.307,0.069-0.643,0.113-0.976,0.168
			C14.608,26.563,13.268,26.75,13.268,26.75z M19.618,25.891c-0.021,0.158-0.085,0.363-0.159,0.611
			c-0.078,0.246-0.202,0.513-0.353,0.79c-0.168,0.266-0.375,0.534-0.572,0.808c-0.757,1.113-1.573,2.193-1.573,2.193
			c-0.013,0.017-0.036,0.02-0.053,0.007c-0.014-0.011-0.019-0.028-0.012-0.045c0,0,0.53-1.245,1.118-2.456
			c0.139-0.307,0.269-0.62,0.416-0.898c0.165-0.269,0.335-0.51,0.509-0.699c0.178-0.188,0.324-0.346,0.45-0.442
			c0.118-0.101,0.197-0.151,0.197-0.151c0.02-0.014,0.046-0.008,0.058,0.012c0.005,0.009,0.007,0.017,0.007,0.025
			C19.652,25.645,19.647,25.738,19.618,25.891z M30.093,26.987c-1.456,0-2.713-0.818-3.375-2.009
			c-0.661,1.192-1.918,2.009-3.375,2.009c-2.063,0-3.739-1.625-3.853-3.661c-0.004-0.073-0.022-0.141-0.022-0.215
			c0-0.276,0.224-0.5,0.5-0.5s0.5,0.224,0.5,0.5c0,0.098,0.019,0.19,0.029,0.285c0.146,1.45,1.358,2.59,2.846,2.59
			c1.435,0,2.618-1.061,2.831-2.438c-0.384-0.095-0.749-0.285-1.049-0.585c-0.88-0.88-0.318-1.593,1.253-1.593h0.681
			c1.572,0,2.133,0.713,1.254,1.593c-0.301,0.3-0.666,0.489-1.049,0.585c0.213,1.376,1.395,2.438,2.83,2.438
			c1.485,0,2.696-1.137,2.846-2.583c0.01-0.098,0.029-0.193,0.029-0.293c0-0.276,0.225-0.5,0.5-0.5c0.276,0,0.5,0.224,0.5,0.5
			c0,0.06-0.015,0.116-0.018,0.175C33.857,25.34,32.17,26.987,30.093,26.987z M36.52,30.305c-0.016,0.008-0.035,0.002-0.045-0.012
			c0,0-0.815-1.079-1.572-2.193c-0.197-0.273-0.404-0.542-0.572-0.808c-0.15-0.277-0.273-0.544-0.354-0.79
			c-0.074-0.248-0.138-0.453-0.158-0.611c-0.029-0.152-0.034-0.246-0.034-0.246c-0.001-0.023,0.017-0.044,0.04-0.045
			c0.009,0,0.018,0.002,0.025,0.008c0,0,0.078,0.051,0.196,0.151c0.126,0.097,0.272,0.255,0.45,0.442
			c0.174,0.189,0.344,0.431,0.509,0.699c0.147,0.278,0.277,0.59,0.416,0.898c0.589,1.211,1.118,2.456,1.118,2.456
			C36.548,30.274,36.54,30.297,36.52,30.305z M40.169,26.75c0,0-1.34-0.186-2.663-0.439c-0.333-0.054-0.669-0.098-0.977-0.166
			c-0.301-0.091-0.578-0.191-0.807-0.31c-0.229-0.123-0.418-0.224-0.545-0.319c-0.13-0.087-0.199-0.15-0.199-0.15
			c-0.018-0.017-0.02-0.043-0.004-0.061c0.006-0.007,0.015-0.011,0.022-0.013c0,0,0.092-0.02,0.247-0.032
			c0.158-0.021,0.372-0.012,0.631-0.006c0.257,0.012,0.548,0.062,0.854,0.134c0.302,0.093,0.614,0.224,0.93,0.343
			c1.271,0.439,2.527,0.945,2.527,0.945c0.019,0.008,0.028,0.03,0.021,0.049C40.202,26.742,40.186,26.752,40.169,26.75z"/>
	</g>
</g>
<g>
</g>
<g>
</g>
<g>
</g>
<g>
</g>
<g>
</g>
<g>
</g>
<g>
</g>
<g>
</g>
<g>
</g>
<g>
</g>
<g>
</g>
<g>
</g>
<g>
</g>
<g>
</g>
<g>
</g>
</svg>
